<?xml version="1.0" standalone="no"?>
<!DOCTYPE svg PUBLIC "-//W3C//DTD SVG 20010904//EN"
 "http://www.w3.org/TR/2001/REC-SVG-20010904/DTD/svg10.dtd">
<svg version="1.0" xmlns="http://www.w3.org/2000/svg"
 width="560.000000pt" height="560.000000pt" viewBox="0 0 560.000000 560.000000"
 preserveAspectRatio="xMidYMid meet">
<metadata>
Created by potrace 1.11, written by Peter Selinger 2001-2013
</metadata>
<g transform="translate(0.000000,560.000000) scale(0.100000,-0.100000)"
fill="#000000" stroke="none">
<path d="M2670 5073 c-74 -8 -268 -45 -325 -63 -67 -20 -165 -65 -209 -95 -69
-47 -201 -185 -257 -270 -109 -164 -196 -366 -234 -546 -33 -153 -29 -351 9
-449 4 -11 -9 -21 -47 -38 -41 -18 -59 -33 -84 -74 -41 -66 -45 -96 -41 -314
3 -195 7 -208 66 -271 17 -17 48 -39 69 -48 58 -25 68 -31 68 -41 3 -38 21
-122 42 -189 90 -286 268 -507 525 -652 l68 -38 0 -182 0 -183 -69 0 c-44 0
-71 4 -73 12 -3 9 -16 9 -54 0 -27 -6 -100 -22 -162 -36 -312 -70 -521 -184
-738 -400 -212 -213 -330 -428 -395 -719 -16 -68 -22 -142 -26 -284 l-5 -193
2001 0 2001 0 0 154 c0 436 -144 777 -453 1072 -200 192 -440 316 -712 369
-49 9 -94 21 -100 25 -17 14 -115 23 -115 11 0 -7 -27 -11 -70 -11 l-70 0 0
184 c0 175 1 185 20 191 79 25 311 218 398 331 100 130 177 318 218 532 3 13
12 25 22 28 40 12 88 41 115 69 59 61 62 74 65 281 2 116 -1 207 -7 231 -17
64 -66 123 -121 146 -39 16 -47 24 -41 36 14 26 31 155 31 235 0 225 -77 511
-191 711 -55 96 -179 226 -274 286 -128 81 -316 156 -441 174 -21 4 -50 9 -64
11 -31 7 -291 11 -340 7z"/>
</g>
</svg>
